<svg width="659" height="280" viewBox="0 0 659 280" fill="none" xmlns="http://www.w3.org/2000/svg">
<path d="M400.161 167.437C400.487 202.111 392.981 228.624 377.641 246.975C362.301 265.326 341.301 274.622 314.641 274.863C287.841 275.125 266.537 266.238 250.731 248.203C234.924 230.168 226.851 203.816 226.511 169.148L225.931 108.176C225.597 73.6362 233.104 47.1232 248.451 28.6382C263.797 10.1535 284.867 0.796864 311.661 0.568564C338.327 0.306864 359.571 9.25736 375.391 27.4202C391.211 45.5832 399.281 71.9312 399.601 106.465L400.161 167.437ZM355.331 100.061C355.111 78.2272 351.334 62.1052 344.001 51.6942C336.667 41.2842 326.001 36.1422 312.001 36.2702C298.047 36.4042 287.517 41.7502 280.411 52.3082C273.304 62.8662 269.834 79.0592 270.001 100.887L270.701 174.978C270.907 196.926 274.731 213.139 282.171 223.617C289.611 234.094 300.301 239.266 314.241 239.132C328.181 238.998 338.677 233.651 345.731 223.093C352.784 212.535 356.207 196.222 356.001 174.152L355.331 100.061Z" fill="#27B1FF"/>
<path d="M340.092 273.622H340.091C313.544 273.881 292.534 265.088 276.943 247.292C261.351 229.496 253.319 203.407 253.001 168.867L252.421 107.895C252.089 73.4892 259.569 47.2432 274.71 29.0052C289.846 10.7747 310.622 1.51943 337.16 1.28673C363.57 1.04073 384.521 9.89173 400.127 27.7952C415.734 45.7002 423.742 71.7932 424.001 106.23V106.233L424.621 167.205C424.953 201.74 417.472 227.983 402.334 246.092C387.198 264.197 366.49 273.389 340.092 273.622ZM381.791 99.8112V99.8102C381.577 77.9082 377.775 61.5522 370.226 50.9142C362.644 40.2292 351.653 34.9592 337.403 35.0692H337.401C323.156 35.2122 312.302 40.6942 304.991 51.5482C297.716 62.3492 294.26 78.7902 294.461 100.705L295.171 174.786C295.385 196.816 299.216 213.279 306.825 224.004C314.466 234.775 325.479 240.077 339.72 239.94H339.721C353.953 239.796 364.775 234.314 372.032 223.458C379.253 212.656 382.675 196.093 382.461 173.941L381.791 99.8112Z" stroke="#363B44" stroke-width="2"/>
<path d="M251.55 111.529C251.6 111.66 245.69 114.026 238.35 116.804C231.01 119.583 225 121.677 225 121.587C225 121.496 230.86 119.09 238.2 116.311C245.54 113.532 251.5 111.388 251.55 111.529Z" fill="#FFB327"/>
<path d="M253 135.622C253.05 135.753 247.14 138.119 239.79 140.897C232.44 143.676 226.46 145.811 226.41 145.68C226.36 145.549 232.27 143.183 239.61 140.404C246.95 137.625 253 135.481 253 135.622Z" fill="#FFB327"/>
<path d="M254.49 159.715C254.54 159.845 248.63 162.211 241.28 164.99C233.93 167.769 228 169.903 227.9 169.773C227.8 169.642 233.76 167.276 241.1 164.497C248.44 161.718 254.44 159.574 254.49 159.715Z" fill="#FFB327"/>
<path d="M256.001 183.808C256.051 183.938 250.141 186.305 242.791 189.083C235.441 191.862 229.451 193.997 229.401 193.866C229.351 193.735 235.271 191.369 242.611 188.59C249.951 185.811 255.911 183.667 256.001 183.808Z" fill="#FFB327"/>
<path d="M257.431 207.901C257.143 208.087 256.834 208.239 256.511 208.354C255.911 208.615 255.031 208.978 253.951 209.411C251.771 210.287 248.761 211.424 245.421 212.723C242.081 214.022 239.041 215.099 236.831 215.885C235.731 216.277 234.831 216.589 234.211 216.791C233.892 216.926 233.555 217.014 233.211 217.052C233.498 216.863 233.807 216.711 234.131 216.599C234.731 216.338 235.601 215.975 236.691 215.593C238.861 214.717 241.881 213.579 245.221 212.28C248.561 210.981 251.601 209.894 253.811 209.119C254.911 208.726 255.811 208.414 256.431 208.213C256.746 208.058 257.084 207.953 257.431 207.901Z" fill="#FFB327"/>
<path d="M264.26 229.94C263.295 230.462 262.292 230.91 261.26 231.279C259.36 232.044 256.73 233.071 253.82 234.178C250.91 235.286 248.25 236.252 246.33 236.927C245.305 237.346 244.248 237.683 243.17 237.934C244.133 237.408 245.136 236.96 246.17 236.595C248.06 235.819 250.69 234.792 253.61 233.695C256.53 232.598 259.17 231.621 261.1 230.946C262.123 230.522 263.18 230.185 264.26 229.94Z" fill="#FFB327"/>
<path d="M278.89 250.156C278.029 250.638 277.129 251.046 276.2 251.375C274.51 252.059 272.2 252.975 269.58 253.962C266.96 254.949 264.58 255.804 262.9 256.398C261.987 256.771 261.043 257.064 260.08 257.274C260.938 256.787 261.839 256.379 262.77 256.056C264.45 255.372 266.77 254.455 269.39 253.469C272.01 252.482 274.39 251.626 276.07 251.022C276.983 250.65 277.926 250.36 278.89 250.156Z" fill="#FFB327"/>
<path d="M303.201 263.416C302.338 263.892 301.438 264.296 300.511 264.624C298.821 265.319 296.511 266.235 293.891 267.212C291.271 268.188 288.891 269.054 287.211 269.658C286.298 270.031 285.354 270.321 284.391 270.524C285.251 270.042 286.151 269.635 287.081 269.306C288.771 268.621 291.081 267.705 293.701 266.718C296.321 265.732 298.701 264.876 300.381 264.282C301.291 263.904 302.235 263.614 303.201 263.416Z" fill="#FFB327"/>
<path d="M376.521 211.998C376.581 212.129 368.991 215.693 359.571 219.962C350.151 224.231 342.461 227.574 342.401 227.443C342.341 227.312 349.931 223.748 359.401 219.479C368.871 215.21 376.461 211.867 376.521 211.998Z" fill="#FFB327"/>
<path d="M381.499 191.359C381.559 191.49 375.289 194.45 367.499 197.973C359.709 201.497 353.349 204.256 353.289 204.125C353.229 203.994 359.489 201.024 367.289 197.5C375.089 193.976 381.439 191.228 381.499 191.359Z" fill="#FFB327"/>
<path d="M383.791 168.172C383.851 168.303 377.581 171.263 369.791 174.787C362.001 178.311 355.641 181.069 355.581 180.938C355.521 180.807 361.781 177.837 369.581 174.313C377.381 170.79 383.731 167.991 383.791 168.172Z" fill="#FFB327"/>
<path d="M386.08 144.975C386.14 145.106 379.88 148.076 372.08 151.6C364.28 155.124 357.93 157.872 357.87 157.741C357.81 157.61 364.08 154.65 371.87 151.127C379.66 147.603 386 144.834 386.08 144.975Z" fill="#FFB327"/>
<path d="M388.38 121.788C388.43 121.919 382.17 124.889 374.38 128.413C366.59 131.937 360.23 134.685 360.17 134.555C360.11 134.424 366.38 131.464 374.17 127.93C381.96 124.396 388.32 121.677 388.38 121.788Z" fill="#FFB327"/>
<path d="M383.791 101.139C383.851 101.27 377.581 104.24 369.791 107.763C362.001 111.287 355.641 114.036 355.581 113.905C355.521 113.774 361.781 110.804 369.581 107.28C377.381 103.756 383.731 101.008 383.791 101.139Z" fill="#FFB327"/>
<path d="M383.791 78.9078C383.851 79.0388 377.581 82.0088 369.791 85.5328C362.001 89.0568 355.641 91.8048 355.581 91.6748C355.521 91.5438 361.781 88.5738 369.581 85.0498C377.381 81.5258 383.731 78.7768 383.791 78.9078Z" fill="#FFB327"/>
<path d="M381.499 57.9772C381.559 58.1082 375.289 61.0682 367.499 64.5912C359.709 68.1152 353.349 70.8741 353.289 70.7431C353.229 70.6121 359.489 67.6421 367.289 64.1181C375.089 60.5941 381.439 57.8462 381.499 57.9772Z" fill="#FFB327"/>
<path d="M361.75 43.3882C359.004 44.9202 356.176 46.2982 353.28 47.5162C350.452 48.8902 347.551 50.1072 344.59 51.1612C347.332 49.6222 350.16 48.2432 353.06 47.0332C355.888 45.6582 358.789 44.4412 361.75 43.3882Z" fill="#FFB327"/>
<path d="M351.189 34.458C348.441 35.981 345.613 37.355 342.719 38.575C339.891 39.95 336.99 41.167 334.029 42.22C336.776 40.695 339.603 39.324 342.499 38.112C345.327 36.734 348.228 35.514 351.189 34.458Z" fill="#FFB327"/>
<path d="M252.68 82.3211C252.73 82.4521 246.82 84.8182 239.48 87.5972C232.14 90.3762 226.14 92.5201 226.09 92.3791C226.04 92.2381 231.95 89.8822 239.3 87.1042C246.65 84.3252 252.63 82.1901 252.68 82.3211Z" fill="#FFB327"/>
<path d="M260 52.278C260.06 52.409 253.64 54.956 245.69 57.977C237.74 60.997 231.23 63.313 231.18 63.182C231.13 63.051 237.54 60.494 245.5 57.483C253.46 54.473 260 52.137 260 52.278Z" fill="#FFB327"/>
<path d="M279.27 22.5369C279.32 22.6779 271.19 25.8699 261.11 29.6849C251.03 33.5009 242.82 36.4809 242.77 36.3499C242.72 36.2199 250.85 33.0079 260.93 29.1919C271.01 25.3759 279.22 22.4059 279.27 22.5369Z" fill="#FFB327"/>
<path d="M421.309 212.29L420.889 212.149L419.689 211.676C419.159 211.485 418.469 211.334 417.689 211.112C416.755 210.929 415.809 210.812 414.859 210.76C410.589 210.488 404.189 212.049 397.999 216.72C394.648 219.276 391.646 222.265 389.069 225.61C386.199 229.144 383.389 233.141 380.199 237.169C376.953 241.488 373.068 245.281 368.679 248.415C363.874 251.677 358.445 253.893 352.739 254.919C347.033 255.953 341.174 255.758 335.549 254.345C330.357 252.974 325.312 251.089 320.489 248.717C315.839 246.552 311.489 244.347 307.349 242.525C303.499 240.813 299.503 239.455 295.409 238.467C292.034 237.665 288.577 237.266 285.109 237.279C282.492 237.299 279.888 237.655 277.359 238.336C275.769 238.806 274.223 239.416 272.739 240.159L271.599 240.763C271.473 240.841 271.339 240.906 271.199 240.954L271.569 240.723L272.689 240.068C274.16 239.278 275.704 238.634 277.299 238.145C279.839 237.424 282.461 237.035 285.099 236.987C288.594 236.942 292.082 237.317 295.489 238.105C299.602 239.08 303.618 240.428 307.489 242.132C311.669 243.944 316.019 246.159 320.659 248.294C325.464 250.641 330.489 252.503 335.659 253.851C341.222 255.25 347.017 255.442 352.659 254.415C358.294 253.4 363.658 251.216 368.409 248.002C372.765 244.904 376.624 241.152 379.849 236.877C383.039 232.849 385.849 228.883 388.759 225.339C391.358 221.984 394.384 218.988 397.759 216.428C404.039 211.757 410.529 210.226 414.849 210.569C415.81 210.632 416.766 210.763 417.709 210.961C418.509 211.213 419.199 211.374 419.709 211.586L420.899 212.109L421.309 212.29Z" fill="white"/>
<path d="M427.619 145.136C427.619 145.186 426.909 145.277 425.669 145.69C423.945 146.325 422.319 147.203 420.839 148.298C418.939 149.637 416.839 151.509 414.429 153.442C411.77 155.531 408.889 157.317 405.839 158.768C400.305 161.439 394.306 162.999 388.179 163.359C387.009 163.46 385.939 163.43 385.009 163.45C384.079 163.47 383.279 163.39 382.629 163.339L381.119 163.188C380.946 163.186 380.773 163.155 380.609 163.098C380.782 163.073 380.957 163.073 381.129 163.098L382.639 163.148H385.009C385.939 163.098 387.009 163.148 388.149 162.987C394.211 162.516 400.133 160.922 405.619 158.285C408.633 156.844 411.488 155.089 414.139 153.05C416.569 151.157 418.679 149.294 420.639 148.016C422.167 146.927 423.854 146.084 425.639 145.519C426.125 145.379 426.62 145.272 427.119 145.197C427.282 145.151 427.451 145.13 427.619 145.136Z" fill="white"/>
<path d="M297 168.464C296.818 168.455 296.637 168.428 296.46 168.383C296.1 168.303 295.57 168.222 294.9 168.031C293.022 167.471 291.221 166.677 289.54 165.665C287.074 164.141 284.733 162.42 282.54 160.52C280.03 158.426 277.35 156.04 274.28 153.905C271.414 151.866 268.196 150.381 264.79 149.526C260.111 148.366 255.22 148.387 250.55 149.586C249.22 149.929 248.5 150.19 248.49 150.14C248.645 150.038 248.813 149.96 248.99 149.908C249.33 149.778 249.83 149.576 250.5 149.385C252.373 148.833 254.302 148.495 256.25 148.378C259.153 148.162 262.071 148.403 264.9 149.093C268.371 149.941 271.652 151.44 274.57 153.513C277.68 155.677 280.36 158.084 282.85 160.188C285.011 162.094 287.311 163.834 289.73 165.393C291.376 166.415 293.13 167.249 294.96 167.88C295.65 168.038 296.331 168.233 297 168.464Z" fill="white"/>
<path d="M297.17 73.2901C296.631 73.5421 296.072 73.7471 295.5 73.9041C294.844 74.1371 294.176 74.3351 293.5 74.4981C292.71 74.7001 291.82 74.9721 290.81 75.1531C289.8 75.3341 288.71 75.5861 287.51 75.7371C286.31 75.8881 285.04 76.0291 283.69 76.1501C280.758 76.3371 277.816 76.3001 274.89 76.0391C271.965 75.7441 269.067 75.2291 266.22 74.4981C264.92 74.1261 263.67 73.7841 262.54 73.3711C261.41 72.9581 260.35 72.5751 259.41 72.1831C258.47 71.7901 257.63 71.3771 256.89 71.0351C256.15 70.6931 255.54 70.3601 255.04 70.0791C254.51 69.8131 254.002 69.5061 253.52 69.1621C254.073 69.3681 254.611 69.6131 255.13 69.8971C255.64 70.1491 256.27 70.4611 257.01 70.7731C257.75 71.0851 258.59 71.4881 259.55 71.8301C260.51 72.1731 261.55 72.6061 262.68 72.9581C263.81 73.3101 265.04 73.6731 266.34 74.0251C271.995 75.4611 277.837 76.0151 283.66 75.6661C285 75.5561 286.27 75.4851 287.46 75.3041C288.65 75.1231 289.74 74.9721 290.74 74.7901C291.74 74.6091 292.63 74.3881 293.42 74.2171C294.21 74.0451 294.89 73.8641 295.42 73.7131C295.992 73.5301 296.577 73.3891 297.17 73.2901Z" fill="white"/>
<path d="M421.94 73.039C421.793 72.984 421.652 72.913 421.52 72.827L420.36 72.153C419.759 71.784 419.138 71.448 418.5 71.146C417.679 70.702 416.834 70.302 415.97 69.948L414.47 69.313C413.94 69.102 413.38 68.941 412.8 68.739C411.66 68.317 410.39 68.025 409.06 67.672C403.247 66.34 397.216 66.289 391.38 67.521C390.111 67.792 388.856 68.128 387.62 68.528C387.04 68.719 386.47 68.87 385.94 69.072L384.43 69.676C383.561 70.018 382.71 70.404 381.88 70.834C381.236 71.129 380.612 71.465 380.01 71.84L378.83 72.495C378.56 72.636 378.41 72.706 378.4 72.686C378.514 72.576 378.642 72.481 378.78 72.404L379.9 71.659C380.493 71.262 381.111 70.906 381.75 70.592C382.571 70.128 383.42 69.714 384.29 69.354L385.8 68.709C386.33 68.498 386.91 68.337 387.49 68.135C388.733 67.713 389.999 67.36 391.28 67.078C397.18 65.776 403.295 65.831 409.17 67.239C410.51 67.602 411.79 67.914 412.94 68.357C413.52 68.568 414.09 68.739 414.61 68.971L416.12 69.636C416.981 70.019 417.822 70.446 418.64 70.914C419.27 71.243 419.878 71.613 420.46 72.022L421.58 72.787C421.83 72.918 422 73.018 421.94 73.039Z" fill="white"/>
<path d="M360.801 4.646C360.576 4.8171 360.335 4.96539 360.081 5.08899L358.001 6.2468C356.151 7.2536 353.471 8.65309 350.111 10.3445C343.411 13.6771 334.001 18.2379 322.861 21.077C317.624 22.403 312.259 23.152 306.861 23.312C302.455 23.442 298.05 23.06 293.731 22.175C290.82 21.586 287.973 20.7128 285.231 19.5669C284.231 19.1843 283.541 18.7816 283.041 18.5601C282.782 18.4479 282.531 18.3166 282.291 18.1674C282.565 18.2388 282.829 18.3401 283.081 18.4695C283.601 18.6608 284.321 19.0333 285.311 19.3857C288.063 20.4527 290.904 21.268 293.801 21.822C298.1 22.649 302.477 22.987 306.851 22.829C312.206 22.642 317.526 21.882 322.721 20.5636C333.791 17.7446 343.211 13.2643 349.941 10.0123L357.941 6.05549L360.001 4.98829C360.26 4.85679 360.527 4.7424 360.801 4.646Z" fill="white"/>
<path d="M160.06 180.072L193.49 181.542L191.94 217.213L158.51 215.744L155.94 275.014L111.94 273.081L114.51 213.81L1 208.817L1.09 181.633L122.09 6.64941L167.51 8.66312L160.06 180.072ZM45.06 175.038L116.06 178.159L120.74 70.0479L119.67 69.6349L115.67 77.3379L45.06 175.038Z" fill="#27B1FF"/>
<path d="M187.002 181.257L186.958 182.256L187.957 182.3L220.388 183.726L218.925 217.399L186.495 215.973L185.495 215.929L185.452 216.929L182.925 275.2L140.923 273.355L143.45 215.082L143.493 214.084L142.495 214.04L29.8938 209.048L29.9796 183.135L150.508 8.93164L194.388 10.8765L187.002 181.257ZM72.1903 175.681L71.1029 177.184L72.9567 177.266L144.007 180.387L145.006 180.431L145.05 179.431L149.73 71.32L149.761 70.602L149.091 70.344L148.021 69.931L147.186 69.609L146.773 70.403L142.807 78.04L72.1903 175.681Z" stroke="#363B44" stroke-width="2"/>
<path d="M29.5901 188.046C29.2543 188.291 28.892 188.497 28.5102 188.661C27.8002 189.023 26.7602 189.526 25.5102 190.13C22.9402 191.349 19.3502 192.97 15.3402 194.681C11.3302 196.393 7.68016 197.843 5.02016 198.859C3.69016 199.363 2.60015 199.756 1.85015 200.017C1.46633 200.177 1.06772 200.299 0.660156 200.38C1.01098 200.152 1.38682 199.966 1.78016 199.826L4.88016 198.507L15.1002 194.168L25.3202 189.768L28.4302 188.439C28.8025 188.269 29.1912 188.137 29.5901 188.046Z" fill="#FFB327"/>
<path d="M45.871 157.923C45.3864 158.222 44.8818 158.488 44.361 158.718C43.361 159.201 41.941 159.886 40.161 160.732C36.591 162.363 31.641 164.547 26.161 166.893C20.681 169.239 15.611 171.243 12.001 172.672C10.181 173.397 8.70102 173.961 7.66102 174.334C7.1384 174.559 6.59604 174.734 6.04102 174.857C6.54049 174.583 7.05842 174.344 7.59102 174.142L11.861 172.33L25.971 166.36L40.051 160.319L44.321 158.496C44.8188 158.257 45.3377 158.065 45.871 157.923Z" fill="#FFB327"/>
<path d="M65.7408 131.011C65.2377 131.324 64.7091 131.593 64.1609 131.816C63.1609 132.299 61.6308 132.984 59.7708 133.83C56.0408 135.471 50.8708 137.656 45.1308 140.001C39.3909 142.347 34.1309 144.391 30.3409 145.831C28.4409 146.546 26.8909 147.109 25.8209 147.482C25.2745 147.708 24.7088 147.883 24.1309 148.006C24.6549 147.732 25.196 147.493 25.7509 147.291L30.2109 145.478L44.9309 139.508L59.6208 133.467L64.0808 131.645C64.6171 131.391 65.1721 131.179 65.7408 131.011Z" fill="#FFB327"/>
<path d="M145.331 162.061C144.99 162.298 144.625 162.497 144.241 162.655C143.531 163.007 142.491 163.49 141.191 164.074C138.611 165.252 135.011 166.813 131.001 168.454C126.991 170.095 123.321 171.474 120.661 172.481C119.321 172.964 118.241 173.347 117.491 173.599C117.105 173.747 116.707 173.858 116.301 173.931C116.649 173.713 117.022 173.537 117.411 173.407L120.531 172.139L130.811 167.991L141.051 163.762L144.161 162.483C144.534 162.3 144.927 162.158 145.331 162.061Z" fill="#FFB327"/>
<path d="M142.09 217.375C141.764 217.611 141.411 217.811 141.04 217.969C140.35 218.311 139.34 218.804 138.09 219.388C135.59 220.566 132.09 222.127 128.22 223.758C124.35 225.389 120.77 226.778 118.22 227.785C116.92 228.268 115.87 228.651 115.14 228.893C114.767 229.049 114.378 229.164 113.98 229.235C114.319 229.017 114.682 228.838 115.06 228.701L118.06 227.433L128.06 223.295L137.98 219.066L140.98 217.798C141.335 217.618 141.707 217.476 142.09 217.375Z" fill="#FFB327"/>
<path d="M141.63 236.766C141.319 236.998 140.984 237.194 140.63 237.35C139.94 237.702 138.93 238.185 137.63 238.779C135.13 239.947 131.63 241.508 127.75 243.149C123.87 244.79 120.31 246.169 117.75 247.176C116.46 247.659 115.41 248.042 114.67 248.294C114.302 248.455 113.916 248.566 113.52 248.626C113.862 248.416 114.223 248.241 114.6 248.102L117.6 246.834L127.6 242.696L137.53 238.467L140.53 237.199C140.877 237.009 141.246 236.864 141.63 236.766Z" fill="#FFB327"/>
<path d="M141.171 256.147C140.858 256.378 140.523 256.577 140.171 256.741C139.481 257.093 138.471 257.577 137.171 258.16C134.661 259.338 131.171 260.899 127.291 262.53C123.411 264.161 119.851 265.551 117.291 266.557C116.001 267.041 114.941 267.423 114.211 267.665C113.84 267.819 113.455 267.934 113.061 268.007C113.399 267.788 113.761 267.609 114.141 267.474L117.141 266.215L127.141 262.067L137.071 257.838L140.071 256.57C140.421 256.389 140.79 256.247 141.171 256.147Z" fill="#FFB327"/>
<path d="M145.851 141.582C145.507 141.815 145.142 142.014 144.761 142.176C144.051 142.528 143.011 143.012 141.761 143.596C139.181 144.774 135.581 146.334 131.571 147.975C127.561 149.616 123.891 150.996 121.231 152.002C119.891 152.486 118.811 152.868 118.061 153.11C117.677 153.264 117.278 153.378 116.871 153.452C117.217 153.228 117.59 153.049 117.981 152.919L121.101 151.65L131.381 147.512L141.621 143.284L144.731 142.015C145.088 141.831 145.464 141.686 145.851 141.582Z" fill="#FFB327"/>
<path d="M146.37 121.104C146.026 121.336 145.661 121.535 145.28 121.698C144.57 122.04 143.53 122.533 142.23 123.117C139.65 124.295 136.05 125.856 132.04 127.487C128.03 129.118 124.37 130.507 121.7 131.514C120.36 131.997 119.28 132.37 118.53 132.621C118.145 132.775 117.747 132.89 117.34 132.964C117.689 132.738 118.065 132.559 118.46 132.43L121.57 131.162L131.85 127.024L142.09 122.795L145.2 121.526C145.573 121.343 145.966 121.201 146.37 121.104Z" fill="#FFB327"/>
<path d="M146.891 100.625C146.577 100.846 146.242 101.035 145.891 101.189C145.221 101.521 144.231 101.984 143.001 102.548C140.531 103.676 137.111 105.176 133.291 106.726C129.471 108.277 125.971 109.616 123.431 110.532C122.161 110.985 121.131 111.348 120.431 111.539C120.064 111.689 119.682 111.797 119.291 111.861C119.627 111.649 119.986 111.477 120.361 111.348L123.361 110.139L133.151 106.203L142.911 102.176L145.911 100.967C146.224 100.817 146.553 100.702 146.891 100.625Z" fill="#FFB327"/>
<path d="M149.19 81.4858C147.593 82.3558 145.919 83.0739 144.19 83.6299C142.516 84.3479 140.778 84.9038 139 85.2908C140.597 84.4178 142.27 83.6968 144 83.1368C145.673 82.4188 147.411 81.8668 149.19 81.4858Z" fill="#FFB327"/>
<path d="M85.5707 103.142C85.0665 103.447 84.5419 103.716 84.0007 103.948C83.0007 104.431 81.4707 105.105 79.6007 105.961C75.8807 107.602 70.7107 109.787 64.9607 112.133C59.2107 114.479 53.9607 116.533 50.1807 117.962C48.2807 118.677 46.7307 119.241 45.6607 119.614C45.11 119.83 44.5454 120.008 43.9707 120.147C44.4891 119.859 45.0311 119.617 45.5907 119.422L50.0507 117.62L64.7707 111.609L79.4607 105.569L83.9107 103.746C84.4501 103.508 85.0047 103.306 85.5707 103.142Z" fill="#FFB327"/>
<path d="M105.411 75.2642C104.907 75.5762 104.379 75.8462 103.831 76.0692C102.831 76.5522 101.301 77.2371 99.4406 78.0831C95.7206 79.7141 90.5406 81.9092 84.8006 84.2442C79.0606 86.5802 73.8005 88.6442 70.0205 90.0742C68.1105 90.7992 66.5705 91.3622 65.4905 91.7352C64.9467 91.9582 64.3846 92.1331 63.8105 92.2581C64.3291 91.9811 64.8672 91.7422 65.4205 91.5442L69.8805 89.7312L84.6005 83.7612L99.3006 77.7202L103.751 75.8882C104.288 75.6392 104.843 75.4302 105.411 75.2642Z" fill="#FFB327"/>
<path d="M123.741 47.395C123.233 47.701 122.706 47.97 122.161 48.201C121.161 48.684 119.631 49.358 117.771 50.214C114.051 51.855 108.871 54.04 103.131 56.386C97.3906 58.732 92.1306 60.786 88.3506 62.215C86.4506 62.93 84.9006 63.494 83.8306 63.867C83.2799 64.083 82.7153 64.261 82.1406 64.4C82.659 64.112 83.201 63.87 83.7606 63.675L88.2206 61.873L102.941 55.903L117.631 49.862L122.081 48.039C122.614 47.776 123.17 47.56 123.741 47.395Z" fill="#FFB327"/>
<path d="M142.821 20.5942C142.312 20.8971 141.784 21.1662 141.241 21.3992C140.241 21.8832 138.711 22.5572 136.851 23.4132C133.121 25.0542 127.951 27.2392 122.211 29.5852C116.471 31.9312 111.211 33.9852 107.421 35.4142C105.521 36.1292 103.981 36.6932 102.901 37.0652C102.351 37.2852 101.787 37.4632 101.211 37.5992C101.731 37.3142 102.272 37.0712 102.831 36.8742L107.291 35.0722L122.001 29.0512L136.691 23.0102L141.151 21.1882C141.692 20.9491 142.25 20.7505 142.821 20.5942Z" fill="#FFB327"/>
<path d="M193.441 61.541C193.273 61.784 193.079 62.007 192.861 62.205C192.295 62.831 191.69 63.419 191.051 63.967C188.718 66.017 186.1 67.713 183.281 69.001C179.075 70.904 174.531 71.931 169.921 72.022C167.196 72.072 164.476 71.764 161.831 71.105C159.007 70.377 156.268 69.348 153.661 68.035C148.281 65.397 143.501 62.286 138.831 60.121C134.737 58.101 130.282 56.93 125.731 56.678C122.664 56.52 119.603 57.096 116.801 58.359C116.045 58.716 115.319 59.133 114.631 59.608C114.395 59.783 114.148 59.941 113.891 60.081C114.104 59.88 114.331 59.695 114.571 59.527C115.242 59.013 115.958 58.562 116.711 58.178C119.516 56.829 122.604 56.186 125.711 56.305C130.327 56.526 134.849 57.694 139.001 59.739C143.721 61.903 148.521 65.004 153.851 67.622C156.432 68.909 159.14 69.921 161.931 70.642C164.53 71.295 167.202 71.606 169.881 71.569C177.557 71.462 184.967 68.716 190.881 63.786C191.731 63.101 192.331 62.497 192.751 62.105C192.966 61.899 193.196 61.71 193.441 61.541Z" fill="white"/>
<path d="M179.52 11.7642C179.117 12.046 178.693 12.2951 178.25 12.5092C177.42 12.9623 176.18 13.516 174.62 14.2208C172.792 14.9951 170.922 15.6673 169.02 16.2344C164.36 17.635 159.541 18.4268 154.68 18.5904C152.68 18.6638 150.676 18.6234 148.68 18.4695C146.99 18.3387 145.68 18.1776 144.68 18.0064C144.193 17.9514 143.711 17.8537 143.24 17.7144C143.732 17.6972 144.224 17.7275 144.71 17.805C145.64 17.9158 147 18.0165 148.71 18.097C150.42 18.1776 152.4 18.1977 154.62 18.097C157.025 17.977 159.422 17.7283 161.8 17.352C164.159 16.9439 166.496 16.413 168.8 15.7612C170.93 15.137 172.8 14.4926 174.39 13.8684C175.98 13.2442 177.21 12.7106 178.07 12.3179C178.535 12.0873 179.021 11.9019 179.52 11.7642Z" fill="white"/>
<path d="M108.52 123.58C108.19 123.273 107.889 122.936 107.62 122.574L105.26 119.734C102.626 116.648 99.8282 113.708 96.8797 110.925C95.2788 109.396 93.5186 108.046 91.6297 106.898C90.0845 105.967 88.394 105.306 86.6297 104.944C84.9926 104.65 83.3167 104.65 81.6797 104.944C81.6797 104.944 81.7897 104.884 82.0097 104.813C82.3351 104.705 82.6699 104.628 83.0097 104.582C84.2378 104.374 85.4916 104.374 86.7197 104.582C88.5419 104.901 90.2927 105.545 91.8897 106.485C93.831 107.637 95.6331 109.012 97.2597 110.582C100.23 113.372 103.003 116.366 105.56 119.543C106.56 120.761 107.3 121.778 107.8 122.483C108.078 122.822 108.319 123.19 108.52 123.58Z" fill="white"/>
<path d="M188.29 153.996C188.29 153.996 188.16 154.117 187.9 154.298C187.64 154.479 187.25 154.771 186.71 155.073C185.209 155.96 183.633 156.711 182 157.319C176.592 159.375 170.717 159.847 165.053 158.679C159.39 157.512 154.171 154.754 150 150.724C148.736 149.528 147.584 148.217 146.56 146.807C146.19 146.314 145.95 145.901 145.77 145.629C145.59 145.358 145.51 145.207 145.53 145.197C145.954 145.671 146.351 146.169 146.72 146.687C147.801 148.029 148.981 149.288 150.25 150.452C154.424 154.336 159.575 156.997 165.143 158.145C170.711 159.293 176.486 158.885 181.84 156.966C183.462 156.4 185.037 155.707 186.55 154.892C187.114 154.562 187.695 154.263 188.29 153.996Z" fill="white"/>
<path d="M217.27 217.455C217.27 217.455 217.17 217.304 216.99 216.982C216.81 216.66 216.53 216.197 216.19 215.593C215.187 213.802 214.043 212.095 212.77 210.488L211.41 208.877L210.68 208.001L209.83 207.166L208.03 205.373L205.93 203.622C202.576 200.938 198.876 198.727 194.93 197.047C190.167 195.019 185.093 193.83 179.93 193.533C173.987 193.212 168.045 194.173 162.5 196.352C156.65 198.668 151 202.162 145.02 205.545C141.992 207.306 138.856 208.873 135.63 210.236C132.288 211.653 128.763 212.585 125.16 213.005C121.555 213.37 117.916 213.149 114.38 212.351C110.959 211.593 107.629 210.462 104.45 208.978C98.4959 206.077 92.8303 202.612 87.53 198.628C82.4 194.953 77.53 191.399 72.72 188.56C68.2978 185.833 63.5039 183.771 58.49 182.438C54.3353 181.408 50.0331 181.122 45.78 181.593C42.5689 181.928 39.4431 182.839 36.55 184.281C34.74 185.214 33.0591 186.382 31.55 187.754L30.39 188.842C30.14 189.093 30 189.214 30 189.214C30 189.214 30.11 189.073 30.36 188.801L31.45 187.623C32.9498 186.211 34.6316 185.009 36.45 184.049C39.3572 182.56 42.5078 181.611 45.75 181.25C50.0386 180.744 54.3824 181.006 58.58 182.026C63.634 183.351 68.4708 185.406 72.94 188.127C77.81 190.966 82.67 194.51 87.81 198.195C93.0905 202.148 98.7326 205.587 104.66 208.464C107.801 209.947 111.094 211.078 114.48 211.837C117.967 212.622 121.556 212.839 125.11 212.481C128.657 212.067 132.128 211.152 135.42 209.763C138.625 208.406 141.744 206.852 144.76 205.112C150.76 201.739 156.4 198.235 162.3 195.909C163.756 195.334 165.245 194.85 166.76 194.46C167.51 194.268 168.25 194.037 168.99 193.886L171.23 193.513C174.109 193.081 177.024 192.946 179.93 193.11C185.155 193.424 190.287 194.643 195.1 196.715C199.049 198.435 202.749 200.684 206.1 203.4C206.82 204.014 207.52 204.618 208.2 205.182L209.99 207.004L210.83 207.85C211.08 208.152 211.33 208.444 211.56 208.736C212.04 209.31 212.49 209.854 212.91 210.377C214.173 212.002 215.294 213.733 216.26 215.552C216.587 216.17 216.837 216.643 217.01 216.972C217.2 217.284 217.27 217.455 217.27 217.455Z" fill="white"/>
<path d="M187.2 259.802C187.037 259.868 186.865 259.912 186.69 259.932L185.21 260.214C184.433 260.372 183.649 260.49 182.86 260.567C181.94 260.657 180.86 260.808 179.72 260.839L177.88 260.919C177.25 260.919 176.58 260.919 175.88 260.919C174.51 260.919 173.04 260.788 171.5 260.667C168.163 260.3 164.861 259.653 161.63 258.734C158.415 257.76 155.284 256.52 152.27 255.029C150.91 254.294 149.6 253.62 148.44 252.865C147.86 252.502 147.28 252.17 146.75 251.858L145.25 250.801C144.25 250.146 143.48 249.452 142.75 248.868C142.119 248.381 141.515 247.86 140.94 247.307C140.51 246.884 140.14 246.542 139.85 246.3C139.715 246.185 139.594 246.053 139.49 245.908C139.645 245.994 139.789 246.099 139.92 246.22L141.08 247.227C141.57 247.649 142.18 248.163 142.93 248.707C143.68 249.25 144.48 249.935 145.46 250.569L146.97 251.576C147.5 251.928 148.08 252.25 148.66 252.583C149.82 253.318 151.13 253.972 152.49 254.687C158.471 257.655 164.922 259.546 171.55 260.275C173.08 260.406 174.55 260.567 175.9 260.577C176.58 260.577 177.24 260.637 177.9 260.577H179.72C180.88 260.577 181.93 260.446 182.85 260.385C183.77 260.325 184.56 260.224 185.2 260.124L186.69 259.942C186.852 259.87 187.024 259.823 187.2 259.802Z" fill="white"/>
<path d="M594.321 180.485L627.621 177.213L631.071 212.743L597.771 216.026L603.501 275.065L559.701 279.384L554.001 220.345L440.841 231.48L437.131 204.568L532.481 14.1906L577.731 9.73047L594.321 180.485ZM479.741 191.772L550.511 184.804L540.051 77.076L538.931 76.824L536.071 85.02L479.741 191.772Z" fill="#27B1FF"/>
<path d="M621.175 177.843L621.271 178.84L622.268 178.742L654.572 175.558L657.838 209.108L625.522 212.302L624.528 212.4L624.625 213.394L630.268 271.449L588.449 275.562L582.815 217.52L582.719 216.523L581.722 216.621L469.55 227.642L466.033 202L560.997 12.3932L604.701 8.08545L621.175 177.843ZM506.716 188.556L505.848 190.199L507.698 190.018L578.468 183.081L579.462 182.984L579.365 181.989L568.905 74.261L568.836 73.5461L568.136 73.383L567.006 73.122L566.131 72.9191L565.835 73.767L563.01 81.8911L506.716 188.556Z" stroke="#363B44" stroke-width="2"/>
<path d="M466.26 206.864C465.954 207.15 465.619 207.403 465.26 207.619C464.61 208.082 463.65 208.726 462.46 209.511C460.07 211.082 456.75 213.196 453.02 215.452C449.29 217.707 445.88 219.67 443.38 221.049C442.14 221.734 441.12 222.288 440.38 222.65C440.022 222.863 439.643 223.039 439.25 223.174C439.554 222.899 439.89 222.663 440.25 222.469L443.14 220.727L452.7 214.999L462.2 209.199L465.09 207.447C465.456 207.208 465.849 207.012 466.26 206.864Z" fill="#FFB327"/>
<path d="M478.16 174.706C477.726 175.077 477.265 175.414 476.78 175.713C475.88 176.327 474.55 177.203 472.9 178.27C469.6 180.394 465 183.304 459.9 186.325C454.8 189.345 450.1 192.174 446.69 194.107C444.99 195.114 443.6 195.849 442.63 196.362C442.138 196.651 441.627 196.903 441.1 197.118C441.55 196.767 442.029 196.454 442.53 196.181L446.53 193.785L459.66 185.882L472.75 177.918L476.75 175.511C477.199 175.207 477.67 174.938 478.16 174.706Z" fill="#FFB327"/>
<path d="M494.08 145.277C493.623 145.65 493.138 145.986 492.63 146.284C491.63 146.908 490.29 147.794 488.56 148.871C485.1 151.016 480.28 153.905 474.92 157.047C469.56 160.188 464.67 162.957 461.1 164.97C459.32 165.977 457.87 166.732 456.86 167.256C456.346 167.548 455.811 167.8 455.26 168.011C455.736 167.661 456.237 167.348 456.76 167.074L460.92 164.648L474.66 156.654L488.37 148.599L492.52 146.163C493.017 145.828 493.538 145.532 494.08 145.277Z" fill="#FFB327"/>
<path d="M577.219 164.749C576.914 165.03 576.578 165.276 576.219 165.484C575.569 165.937 574.599 166.561 573.409 167.326C571.009 168.857 567.669 170.91 563.929 173.105C560.189 175.3 556.749 177.193 554.239 178.522C552.989 179.196 551.969 179.72 551.239 180.072C550.882 180.28 550.503 180.449 550.109 180.576C550.418 180.313 550.753 180.083 551.109 179.891L554.019 178.2L563.609 172.642L573.159 167.014L576.069 165.313C576.43 165.081 576.816 164.892 577.219 164.749Z" fill="#FFB327"/>
<path d="M581.74 219.962C581.438 220.247 581.102 220.494 580.74 220.697C580.11 221.14 579.18 221.764 578.02 222.53C575.71 224.04 572.48 226.084 568.86 228.258C565.24 230.433 561.91 232.286 559.48 233.635C558.27 234.299 557.28 234.823 556.59 235.175C556.245 235.384 555.875 235.549 555.49 235.668C555.799 235.409 556.134 235.183 556.49 234.994L559.3 233.312L568.59 227.805L577.83 222.207L580.64 220.526C580.983 220.294 581.352 220.105 581.74 219.962Z" fill="#FFB327"/>
<path d="M584 239.222C583.697 239.507 583.362 239.754 583 239.957C582.37 240.4 581.44 241.025 580.28 241.79C577.97 243.3 574.74 245.344 571.12 247.508C567.5 249.673 564.17 251.536 561.74 252.895C560.53 253.559 559.54 254.083 558.85 254.435C558.504 254.644 558.135 254.809 557.75 254.929C558.059 254.669 558.394 254.443 558.75 254.254L561.56 252.573L570.85 247.065L580.09 241.468L582.9 239.786C583.243 239.554 583.612 239.365 584 239.222Z" fill="#FFB327"/>
<path d="M586.24 258.483C585.938 258.767 585.602 259.014 585.24 259.218C584.61 259.661 583.68 260.285 582.52 261.04C580.21 262.56 576.98 264.604 573.36 266.769C569.74 268.933 566.41 270.796 563.98 272.155C562.77 272.82 561.78 273.343 561.09 273.695C560.742 273.898 560.373 274.064 559.99 274.189C560.299 273.929 560.634 273.703 560.99 273.514L563.8 271.833L573.09 266.326L582.33 260.728L585.14 259.046C585.483 258.815 585.852 258.625 586.24 258.483Z" fill="#FFB327"/>
<path d="M574.87 144.391C574.563 144.673 574.227 144.923 573.87 145.136C573.21 145.579 572.25 146.213 571.05 146.979C568.65 148.499 565.31 150.563 561.57 152.748C557.83 154.932 554.39 156.835 551.89 158.174C550.63 158.839 549.61 159.372 548.89 159.725C548.532 159.933 548.153 160.102 547.76 160.228C548.07 159.967 548.405 159.738 548.76 159.544L551.66 157.852L561.26 152.295L570.81 146.656L573.71 144.965C574.075 144.733 574.464 144.541 574.87 144.391Z" fill="#FFB327"/>
<path d="M572.52 124.044C572.216 124.329 571.88 124.579 571.52 124.789C570.86 125.232 569.9 125.856 568.7 126.621C566.31 128.151 562.97 130.215 559.22 132.4C555.47 134.585 552.05 136.488 549.54 137.827C548.29 138.491 547.27 139.025 546.54 139.377C546.186 139.589 545.806 139.755 545.41 139.871C545.718 139.609 546.053 139.383 546.41 139.196L549.31 137.495L558.91 131.947L568.46 126.309L571.36 124.607C571.727 124.38 572.115 124.191 572.52 124.044Z" fill="#FFB327"/>
<path d="M570.181 103.696C569.895 103.966 569.58 104.203 569.241 104.401C568.611 104.833 567.691 105.407 566.551 106.162C564.281 107.622 561.101 109.586 557.551 111.67C554.001 113.754 550.711 115.566 548.321 116.835L545.471 118.305C545.129 118.502 544.767 118.66 544.391 118.778C544.701 118.526 545.036 118.307 545.391 118.123L548.151 116.502L557.301 111.217L566.391 105.84L569.161 104.229C569.48 104.014 569.822 103.835 570.181 103.696Z" fill="#FFB327"/>
<path d="M569.781 84.4258C568.322 85.5208 566.761 86.4708 565.121 87.2648C563.56 88.2078 561.916 89.0068 560.211 89.6508C561.67 88.5558 563.231 87.6048 564.871 86.8118C566.431 85.8658 568.075 85.0668 569.781 84.4258Z" fill="#FFB327"/>
<path d="M509.82 114.871C509.368 115.246 508.886 115.583 508.38 115.878C507.38 116.502 506.03 117.388 504.3 118.466C500.85 120.61 496.03 123.5 490.67 126.641C485.31 129.782 480.42 132.551 476.85 134.504C475.07 135.511 473.61 136.266 472.6 136.79C472.088 137.078 471.556 137.33 471.01 137.545C471.484 137.192 471.985 136.879 472.51 136.608L476.67 134.182L490.41 126.188L504.11 118.134L508.27 115.697C508.766 115.385 509.284 115.109 509.82 114.871Z" fill="#FFB327"/>
<path d="M525.57 84.4258C525.113 84.7978 524.628 85.1348 524.12 85.4318C523.12 86.0568 521.78 86.9428 520.05 88.0198C516.59 90.1638 511.77 93.0538 506.42 96.1948C501.07 99.3358 496.16 102.105 492.59 104.058C490.81 105.065 489.36 105.82 488.35 106.344C487.836 106.636 487.301 106.888 486.75 107.099C487.226 106.749 487.727 106.436 488.25 106.163L492.41 103.736L506.15 95.7418L519.86 87.6878L524.02 85.2508C524.515 84.9358 525.033 84.6598 525.57 84.4258Z" fill="#FFB327"/>
<path d="M539.83 54.272C539.373 54.644 538.888 54.981 538.38 55.278C537.38 55.903 536.04 56.789 534.31 57.866C530.85 60.01 526.03 62.9 520.67 66.041C515.31 69.182 510.42 71.951 506.85 73.904C505.07 74.911 503.62 75.666 502.61 76.19C502.095 76.479 501.56 76.732 501.01 76.945C501.486 76.595 501.987 76.282 502.51 76.009L506.67 73.582L520.41 65.588L534.12 57.534L538.27 55.097C538.767 54.781 539.289 54.505 539.83 54.272Z" fill="#FFB327"/>
<path d="M555 25.0239C554.543 25.3969 554.058 25.7329 553.55 26.0309C552.6 26.6549 551.21 27.5409 549.48 28.6179C546.02 30.7629 541.2 33.6519 535.84 36.8029C530.48 39.9549 525.59 42.7029 522.02 44.6669C520.24 45.6729 518.79 46.4179 517.78 46.9419C517.266 47.2369 516.731 47.4929 516.18 47.7069C516.65 47.3469 517.153 47.0299 517.68 46.7609L521.84 44.3439L535.58 36.2899L549.29 28.2359L553.44 25.7989C553.94 25.5019 554.461 25.2429 555 25.0239Z" fill="#FFB327"/>
<path d="M610.81 58.4102C610.672 58.6692 610.512 58.9152 610.33 59.1452C609.857 59.8492 609.34 60.5222 608.78 61.1582C606.757 63.5272 604.398 65.5832 601.78 67.2592C597.889 69.7602 593.535 71.4381 588.98 72.1931C586.292 72.6261 583.559 72.7041 580.85 72.4241C577.952 72.1031 575.096 71.4722 572.33 70.5422C566.63 68.6992 561.47 66.2931 556.54 64.8031C552.206 63.3991 547.636 62.8822 543.1 63.2832C540.041 63.5642 537.091 64.5672 534.49 66.2122C533.786 66.6752 533.118 67.1902 532.49 67.7532C532.289 67.9652 532.068 68.1571 531.83 68.3271C532.008 68.0951 532.205 67.8792 532.42 67.6822C533.013 67.0782 533.659 66.5292 534.35 66.0412C536.948 64.3062 539.928 63.2342 543.03 62.9202C547.629 62.4342 552.277 62.9002 556.69 64.2892C561.69 65.7692 566.85 68.1562 572.49 69.9982C575.225 70.9122 578.047 71.5392 580.91 71.8712C583.575 72.1452 586.263 72.0741 588.91 71.6591C593.407 70.9391 597.715 69.3202 601.58 66.8972C604.174 65.2582 606.529 63.2662 608.58 60.9772C609.151 60.3622 609.688 59.7172 610.19 59.0442C610.382 58.8182 610.589 58.6062 610.81 58.4102Z" fill="white"/>
<path d="M590.071 11.0996C589.716 11.4395 589.331 11.7462 588.921 12.0158C588.161 12.5897 587.021 13.3448 585.571 14.2207C583.869 15.2469 582.113 16.1779 580.311 17.0096C578.096 18.0171 575.826 18.8945 573.511 19.6374C571.187 20.3572 568.822 20.9388 566.431 21.3789C564.478 21.7239 562.508 21.9659 560.531 22.1039C558.841 22.2149 557.471 22.2349 556.531 22.2049C556.039 22.2259 555.546 22.1949 555.061 22.1139C555.543 22.0309 556.032 21.9939 556.521 22.0029C557.461 22.0029 558.821 21.8829 560.521 21.7319C562.221 21.5809 564.181 21.3089 566.361 20.906C568.722 20.4385 571.058 19.8504 573.361 19.144C575.658 18.4069 577.914 17.5465 580.121 16.5666C582.121 15.6504 583.931 14.7443 585.391 13.8986C586.851 13.0528 588.021 12.3581 588.811 11.8849C589.207 11.5868 589.629 11.324 590.071 11.0996Z" fill="white"/>
<path d="M535.4 131.856C535.042 131.591 534.707 131.295 534.4 130.97L531.66 128.504C528.624 125.819 525.446 123.302 522.14 120.963C520.341 119.661 518.406 118.561 516.37 117.681C514.711 116.979 512.946 116.567 511.15 116.462C509.488 116.392 507.826 116.617 506.24 117.127C506.24 117.127 506.34 117.046 506.55 116.946C506.854 116.8 507.168 116.679 507.49 116.583C508.681 116.213 509.925 116.046 511.17 116.09C513.017 116.148 514.839 116.537 516.55 117.238C518.63 118.102 520.603 119.207 522.43 120.53C525.763 122.874 528.931 125.447 531.91 128.232C533.05 129.299 533.91 130.246 534.54 130.829C534.865 131.138 535.153 131.482 535.4 131.856Z" fill="white"/>
<path d="M618.62 150.684C618.62 150.684 618.52 150.814 618.28 151.036C618.04 151.257 617.7 151.59 617.21 151.962C615.858 153.058 614.409 154.025 612.88 154.852C607.814 157.638 602.069 158.928 596.307 158.572C590.545 158.215 585 156.228 580.31 152.838C578.896 151.832 577.577 150.696 576.37 149.445C575.93 149.012 575.63 148.64 575.37 148.438C575.251 148.32 575.15 148.184 575.07 148.036C575.07 148.036 575.57 148.499 576.46 149.345C577.709 150.524 579.046 151.605 580.46 152.576C585.131 155.838 590.598 157.75 596.271 158.104C601.944 158.459 607.605 157.244 612.64 154.59C614.168 153.799 615.632 152.89 617.02 151.872C617.531 151.446 618.065 151.049 618.62 150.684Z" fill="white"/>
<path d="M656.38 209.662C656.246 209.539 656.119 209.408 656 209.27C655.76 208.978 655.44 208.555 655 208.011C653.754 206.383 652.383 204.854 650.9 203.44L649.32 202.031L648.48 201.276L647.48 200.561L645.48 199.051L643.15 197.611C639.465 195.43 635.502 193.764 631.37 192.657C626.364 191.312 621.165 190.842 616 191.268C610.072 191.795 604.324 193.591 599.14 196.534C593.67 199.655 588.57 203.914 583.14 208.112C580.385 210.279 577.499 212.273 574.5 214.082C571.382 215.958 568.015 217.378 564.5 218.301C560.979 219.166 557.344 219.461 553.73 219.177C550.231 218.886 546.773 218.211 543.42 217.163C537.121 215.143 531.029 212.516 525.23 209.32C519.63 206.4 514.34 203.581 509.16 201.457C504.38 199.392 499.327 198.036 494.16 197.43C489.901 197.013 485.602 197.354 481.46 198.436C478.329 199.223 475.362 200.566 472.7 202.403C471.032 203.589 469.52 204.983 468.2 206.551L467.25 207.84C467.03 208.132 466.91 208.273 466.91 208.273C466.91 208.273 467 208.112 467.2 207.81L468.12 206.491C469.408 204.877 470.909 203.448 472.58 202.242C475.244 200.349 478.23 198.964 481.39 198.155C485.564 197.042 489.902 196.684 494.2 197.097C499.391 197.699 504.467 199.055 509.27 201.125C514.49 203.239 519.8 206.058 525.4 208.958C531.178 212.126 537.242 214.735 543.51 216.75C546.83 217.767 550.25 218.419 553.71 218.693C557.27 218.978 560.852 218.685 564.32 217.828C567.775 216.914 571.084 215.515 574.15 213.67C577.134 211.876 580.003 209.895 582.74 207.739C588.18 203.561 593.31 199.292 598.83 196.151C600.193 195.376 601.603 194.687 603.05 194.087C603.76 193.785 604.45 193.463 605.17 193.201L607.33 192.516C610.121 191.681 612.989 191.131 615.89 190.875C621.107 190.453 626.356 190.936 631.41 192.305C635.566 193.431 639.55 195.125 643.25 197.339L645.58 198.799L647.58 200.349L648.58 201.064L649.42 201.84L650.99 203.269C652.446 204.708 653.784 206.264 654.99 207.921C655.39 208.484 655.71 208.927 655.93 209.219L656.38 209.662Z" fill="white"/>
<path d="M632.32 255.583C632.167 255.666 632.006 255.733 631.84 255.784L630.42 256.278C629.672 256.541 628.911 256.766 628.14 256.952C627.23 257.174 626.22 257.476 625.06 257.667L623.26 258.009C622.63 258.12 621.97 258.18 621.26 258.271C619.9 258.472 618.43 258.543 616.88 258.644C613.539 258.746 610.194 258.574 606.88 258.13C603.56 257.623 600.289 256.835 597.1 255.774C595.64 255.251 594.25 254.767 593 254.183C592.37 253.901 591.75 253.66 591.18 253.378L589.55 252.542C588.49 252.029 587.6 251.455 586.8 250.982C586.111 250.588 585.444 250.158 584.8 249.693L583.57 248.817C583.42 248.724 583.282 248.613 583.16 248.485C583.327 248.543 583.485 248.624 583.63 248.726L584.91 249.522C585.45 249.874 586.13 250.297 586.91 250.73C587.69 251.163 588.61 251.737 589.67 252.21L591.31 253.005C591.88 253.287 592.5 253.519 593.13 253.791C594.38 254.344 595.76 254.798 597.21 255.321C600.407 256.344 603.681 257.105 607 257.596C610.297 258.045 613.624 258.23 616.95 258.15C618.48 258.06 619.95 258.019 621.29 257.828C621.96 257.748 622.62 257.697 623.29 257.596L625.09 257.294C626.24 257.133 627.25 256.851 628.16 256.66C629.07 256.469 629.83 256.257 630.45 256.066L631.9 255.673C632.037 255.628 632.177 255.598 632.32 255.583Z" fill="white"/>
<path d="M510.821 109.294C510.721 109.294 510.621 108.227 510.101 106.585C509.79 105.629 509.395 104.702 508.921 103.817C507.741 101.655 506.102 99.7809 504.121 98.3299C503.313 97.7379 502.453 97.2219 501.551 96.7889C500.011 96.0539 498.961 95.7819 498.981 95.7219C499.235 95.7119 499.488 95.7459 499.731 95.8229C500.415 95.9699 501.084 96.1789 501.731 96.4469C502.68 96.8479 503.585 97.3469 504.431 97.9369C506.514 99.3859 508.211 101.329 509.371 103.595C509.843 104.515 510.215 105.484 510.481 106.485C510.664 107.143 510.788 107.817 510.851 108.498C510.883 108.763 510.873 109.032 510.821 109.294Z" fill="#EB996E"/>
<path d="M387.311 207.951C387.561 207.775 387.848 207.661 388.151 207.619C388.961 207.44 389.803 207.468 390.601 207.699C391.775 208.035 392.872 208.6 393.831 209.36C394.408 209.792 394.946 210.274 395.441 210.8C395.939 211.418 396.362 212.094 396.701 212.814C397.885 215.215 398.872 217.71 399.651 220.274C399.951 221.281 400.151 222.056 400.281 222.62C400.374 222.906 400.417 223.205 400.411 223.506C400.341 223.506 399.981 222.308 399.301 220.385C398.419 217.881 397.394 215.43 396.231 213.045C395.915 212.378 395.519 211.752 395.051 211.183C394.584 210.677 394.079 210.209 393.541 209.783C392.646 209.048 391.631 208.475 390.541 208.092C389.492 207.78 388.382 207.731 387.311 207.951Z" fill="#EB996E"/>
<path d="M395.08 235.256C394.849 234.905 394.658 234.531 394.51 234.138L393.1 231.057C391.91 228.45 390.17 224.885 388.51 220.828C387.842 218.899 386.959 217.051 385.88 215.321C384.948 213.963 383.665 212.887 382.17 212.21C381.176 211.726 380.069 211.527 378.97 211.636C378.19 211.737 377.79 211.948 377.77 211.898C377.75 211.847 377.86 211.827 378.05 211.726C378.328 211.587 378.624 211.488 378.93 211.434C380.078 211.237 381.258 211.388 382.32 211.867C383.907 212.534 385.276 213.637 386.27 215.049C387.393 216.793 388.306 218.665 388.99 220.627C390.64 224.654 392.33 228.258 393.44 230.906C393.99 232.225 394.44 233.312 394.7 234.057C394.87 234.442 394.997 234.843 395.08 235.256Z" fill="#EB996E"/>
<path d="M365.461 219.72C365.774 219.495 366.109 219.303 366.461 219.147L369.341 217.747C369.961 217.455 370.611 217.133 371.341 216.811C372.163 216.481 373.05 216.35 373.931 216.428C374.912 216.507 375.853 216.856 376.651 217.435C377.456 218.098 378.134 218.903 378.651 219.811C379.201 220.717 379.651 221.653 380.051 222.519C380.451 223.385 380.921 224.221 381.361 225.006C382.231 226.567 383.051 227.966 383.651 229.194C384.145 230.154 384.572 231.146 384.931 232.165C385.091 232.526 385.199 232.91 385.251 233.302C385.171 233.302 384.631 231.742 383.331 229.366C382.681 228.178 381.841 226.808 380.941 225.248C380.491 224.462 380.041 223.627 379.601 222.751C379.161 221.875 378.741 220.959 378.211 220.083C377.726 219.233 377.101 218.474 376.361 217.838C375.648 217.289 374.802 216.941 373.911 216.831C373.102 216.743 372.283 216.846 371.521 217.133C370.801 217.425 370.111 217.747 369.521 217.999L366.571 219.338C366.218 219.51 365.845 219.638 365.461 219.72Z" fill="#EB996E"/>
<path d="M366.86 214.374C366.593 214.598 366.297 214.784 365.98 214.928C365.4 215.26 364.55 215.724 363.49 216.287C361.38 217.415 358.44 218.945 355.18 220.596C351.92 222.248 348.96 223.718 346.8 224.765L344.24 225.973C343.925 226.141 343.589 226.267 343.24 226.345C343.513 226.122 343.812 225.933 344.13 225.782C344.71 225.459 345.56 224.996 346.62 224.432C348.73 223.305 351.67 221.784 354.93 220.123C358.19 218.462 361.15 217.002 363.3 215.965C364.38 215.442 365.3 215.029 365.87 214.747C366.181 214.575 366.514 214.45 366.86 214.374Z" fill="#EB996E"/>
<path d="M291.111 171.947C288.589 171.564 286.032 171.48 283.491 171.696C280.968 172.078 278.499 172.754 276.131 173.709C276.732 173.227 277.408 172.846 278.131 172.582C279.82 171.851 281.605 171.37 283.431 171.152C285.261 170.935 287.114 170.982 288.931 171.293C289.688 171.391 290.424 171.612 291.111 171.947Z" fill="#EB996E"/>
</svg>
