<svg width="15" height="17" viewBox="0 0 15 17" fill="none" xmlns="http://www.w3.org/2000/svg">
<path d="M11.904 6H10.2709V1C10.2709 0.45 9.80874 0 9.24384 0H5.13547C4.57056 0 4.10837 0.45 4.10837 1V6H2.47529C1.56118 6 1.09899 7.08 1.74606 7.71L6.46042 12.3C6.86098 12.69 7.50805 12.69 7.90862 12.3L12.623 7.71C13.27 7.08 12.8181 6 11.904 6ZM0 16C0 16.55 0.462192 17 1.02709 17H13.3522C13.9171 17 14.3793 16.55 14.3793 16C14.3793 15.45 13.9171 15 13.3522 15H1.02709C0.462192 15 0 15.45 0 16Z" fill="#E1E1E6"/>
</svg>
