<svg width="16" height="12" viewBox="0 0 16 12" fill="none" xmlns="http://www.w3.org/2000/svg">
<rect width="16" height="12" fill="#2B9F5A"/>
<path fill-rule="evenodd" clip-rule="evenodd" d="M8 1.5L1.5 6L8 10.5L14.5 6L8 1.5Z" fill="#FFD018"/>
<path d="M11 6C11 7.65685 9.65685 9 8 9C6.34315 9 5 7.65685 5 6C5 4.34315 6.34315 3 8 3C9.65685 3 11 4.34315 11 6Z" fill="#41479B"/>
<mask id="mask0_65_121" style="mask-type:alpha" maskUnits="userSpaceOnUse" x="5" y="3" width="6" height="6">
<path d="M11 6C11 7.65685 9.65685 9 8 9C6.34315 9 5 7.65685 5 6C5 4.34315 6.34315 3 8 3C9.65685 3 11 4.34315 11 6Z" fill="#41479B"/>
</mask>
<g mask="url(#mask0_65_121)">
<path fill-rule="evenodd" clip-rule="evenodd" d="M4.54103 5.37276L4.49998 5.00001C4.45885 4.62727 4.45891 4.62726 4.45899 4.62726L4.46144 4.62699L4.46729 4.62637L4.48849 4.6242C4.50676 4.62238 4.53322 4.61985 4.56717 4.61685C4.63508 4.61087 4.73307 4.60306 4.85576 4.59548C5.10092 4.58032 5.44576 4.56603 5.84678 4.56928C6.64288 4.57575 7.68545 4.65138 8.61194 4.9412C9.532 5.229 10.315 5.67392 10.8653 6.04353C11.1414 6.22893 11.3612 6.39693 11.5129 6.51945C11.5888 6.58075 11.6479 6.63079 11.6886 6.66608C11.7089 6.68373 11.7247 6.69771 11.7357 6.70757L11.7486 6.71923L11.7524 6.72265L11.7536 6.72374C11.7536 6.72381 11.7543 6.72441 11.5 7C11.2457 7.27559 11.2457 7.27565 11.2458 7.2757L11.2441 7.27412L11.2353 7.26626C11.2272 7.25896 11.2144 7.24762 11.1971 7.23266C11.1626 7.20273 11.1104 7.15838 11.0418 7.10299C10.9044 6.99212 10.7024 6.83754 10.4472 6.66614C9.93498 6.32215 9.21797 5.91661 8.38803 5.657C7.56452 5.3994 6.60709 5.32548 5.84069 5.31926C5.46046 5.31617 5.13342 5.32975 4.90202 5.34405C4.78643 5.35119 4.69497 5.3585 4.63299 5.36396C4.60201 5.36669 4.57841 5.36896 4.56287 5.37051L4.5457 5.37226L4.54103 5.37276Z" fill="#F5F8FB"/>
</g>
<path d="M7 7.25C7 7.38807 6.88807 7.5 6.75 7.5C6.61193 7.5 6.5 7.38807 6.5 7.25C6.5 7.11193 6.61193 7 6.75 7C6.88807 7 7 7.11193 7 7.25Z" fill="#F5F8FB"/>
<path d="M8.5 7.75C8.5 7.88807 8.38807 8 8.25 8C8.11193 8 8 7.88807 8 7.75C8 7.61193 8.11193 7.5 8.25 7.5C8.38807 7.5 8.5 7.61193 8.5 7.75Z" fill="#F5F8FB"/>
<path d="M9.5 7.25C9.5 7.38807 9.38807 7.5 9.25 7.5C9.11193 7.5 9 7.38807 9 7.25C9 7.11193 9.11193 7 9.25 7C9.38807 7 9.5 7.11193 9.5 7.25Z" fill="#F5F8FB"/>
</svg>
