<svg width="104" height="104" viewBox="0 0 104 104" fill="none" xmlns="http://www.w3.org/2000/svg">
<path d="M30.9474 62.9411L21.6849 66.9191L30.264 70.5868L40.2099 66.9191L30.9474 62.9411ZM17.0227 67.9136L16.7124 85.8163L30.264 91.7841V73.1973L17.0227 67.9136ZM44.872 67.9136L32.6252 72.5766V90.1063L44.872 85.1329V67.9136ZM59.4799 12.2159L50.1557 16.1939L58.7966 19.8624L68.7424 16.1939L59.4799 12.2159ZM46.5498 17.4996V35.4023L58.1125 38.7595L58.4854 22.4721L46.5498 17.4996ZM72.41 18.4941L61.4689 23.1563V40.7485L72.41 35.7752V18.4941ZM15.6862 37.4132L6.42448 41.392L15.0029 45.0596L24.9487 41.392L15.6862 37.4132ZM1.76155 42.3865L1.45117 60.2891L15.0029 66.2569V47.6702L1.76155 42.3865ZM29.61 42.3865L17.3648 47.0486V64.5775L29.61 59.605V42.3865ZM45.5244 36.7502L36.2619 40.729L44.8403 44.3966L54.7861 40.729L45.5244 36.7502ZM31.6006 41.7235L31.2894 59.6269L44.8411 65.5948V47.0072L31.6006 41.7235ZM59.449 41.7235L47.203 46.3856V63.9161L59.449 58.9428V41.7235ZM88.6243 12.2159L79.3626 16.1939L87.9418 19.8624L97.8876 16.1939L88.6243 12.2159ZM74.7005 17.1893L74.3901 35.0919L87.9418 41.0589V22.4721L74.7005 17.1893ZM102.549 17.1893L90.3037 21.8514V39.3811L102.549 34.4086V17.1893Z" fill="#E1E1E6"/>
</svg>
