<svg width="104" height="104" viewBox="0 0 104 104" fill="none" xmlns="http://www.w3.org/2000/svg">
<path d="M7.11755 0.8125L15.2872 92.5299L51.9456 102.751L88.7064 92.4926L96.8826 0.8125H7.11755ZM79.9102 21.8254L77.1908 52.3794L77.1989 52.5444L77.1876 52.9238V52.9206L75.2554 74.2844L75.0425 76.1824L52.0001 82.5557V82.5565L51.9822 82.5719L28.9795 76.1629L27.4219 58.5H38.7019L39.5022 67.4814L52.0033 70.8695L52.0001 70.876V70.8744L64.5475 67.4383L65.8735 52.8125H39.6436L39.4185 50.3401L38.9058 44.5477L38.6369 41.4375H66.8704L67.8974 30.0625H24.8951L24.67 27.5917L24.1581 21.7977L23.8884 18.6875H80.1792L79.9102 21.8254Z" fill="#E1E1E6"/>
</svg>
