<svg width="32" height="32" viewBox="0 0 32 32" fill="none" xmlns="http://www.w3.org/2000/svg">
<rect width="32" height="32" rx="4" fill="#0D1117"/>
<path fill-rule="evenodd" clip-rule="evenodd" d="M21.9071 12.8648C24.6297 13.6879 26.4055 15.0151 26.4055 16.4156C26.4055 17.8118 24.6384 19.1391 21.9333 19.9621C22.5659 22.6942 22.291 24.8703 21.065 25.5684C20.777 25.7322 20.4454 25.8097 20.0789 25.8097C18.8791 25.8097 17.3084 24.9738 15.7202 23.5172C14.132 24.9824 12.5613 25.827 11.3614 25.827C10.9949 25.827 10.6633 25.7494 10.3797 25.5857C9.14933 24.8876 8.87009 22.7071 9.49837 19.9664C6.77579 19.1434 5 17.8161 5 16.4156C5 15.0195 6.76706 13.6965 9.48092 12.8692C8.84827 10.1371 9.12315 7.96096 10.3492 7.26286C10.6371 7.09911 10.9687 7.02155 11.3352 7.02155V7.01724C12.5351 7.01724 14.1058 7.85323 15.694 9.30974C17.2822 7.84461 18.8529 7 20.0528 7V7.00431C20.4132 7.00493 20.7433 7.08253 21.0257 7.24563C22.2561 7.94372 22.5354 10.1242 21.9071 12.8648ZM20.0484 7.96096C19.141 7.96325 17.8078 8.67838 16.3877 9.98198C17.0029 10.6154 17.6138 11.3394 18.2028 12.1366C19.1845 12.24 20.1182 12.3995 20.9734 12.6063C21.0694 12.1711 21.1479 11.7445 21.1959 11.3394C21.3966 9.69326 21.1392 8.41342 20.5458 8.0773C20.4105 8.00405 20.2491 7.96527 20.0484 7.96527V7.96096ZM15.0003 9.98629C13.5779 8.68921 12.2384 7.97819 11.3352 7.97819V7.9825C11.1345 7.9825 10.9644 8.01698 10.8335 8.09454C10.2445 8.43497 9.99141 9.71481 10.1965 11.3609C10.2488 11.7617 10.323 12.1797 10.4234 12.6106C11.2785 12.3995 12.2122 12.24 13.1983 12.1366C13.7786 11.3394 14.3894 10.6197 15.0003 9.98629ZM20.1357 15.2435C20.3625 14.6704 20.5632 14.0973 20.7247 13.5414C20.1531 13.4035 19.5554 13.2915 18.9358 13.201C19.1496 13.5285 19.3634 13.8646 19.5641 14.2093C19.7692 14.5541 19.9568 14.8988 20.1357 15.2435ZM17.6749 19.7768C18.037 19.264 18.386 18.7125 18.7264 18.1307C19.0536 17.5662 19.3547 16.9888 19.6295 16.4113C19.3547 15.8339 19.0536 15.2608 18.722 14.6963C18.3817 14.1188 18.0283 13.5716 17.6661 13.0588C17.0204 13.0071 16.3616 12.9769 15.7027 12.9769C15.0395 12.9769 14.3807 13.0071 13.7306 13.0631C13.3685 13.5759 13.0194 14.1274 12.6791 14.7092C12.3519 15.2737 12.0464 15.8511 11.7759 16.4286C12.0508 17.006 12.3519 17.5791 12.6835 18.1436C13.0238 18.7211 13.3772 19.2683 13.7393 19.7811C14.3851 19.8329 15.0439 19.863 15.7027 19.863C16.3659 19.863 17.0248 19.8329 17.6749 19.7768ZM20.7378 19.2856C20.572 18.7254 20.3713 18.148 20.1357 17.5705C19.9568 17.9153 19.7692 18.2643 19.5685 18.609C19.3677 18.9581 19.154 19.2985 18.9402 19.6303C19.5641 19.5398 20.1662 19.4235 20.7378 19.2856ZM14.4985 20.7895C14.8999 21.2937 15.3057 21.7548 15.7115 22.1685C16.1129 21.7548 16.5186 21.2937 16.9113 20.7895C16.5143 20.811 16.1085 20.8197 15.6984 20.8197C15.2926 20.8197 14.8912 20.8067 14.4985 20.7895ZM10.6764 19.2899C11.248 19.4278 11.8457 19.5398 12.4653 19.6303C12.2515 19.3028 12.0421 18.9667 11.837 18.622C11.6319 18.2772 11.4443 17.9325 11.2654 17.5878C11.0386 18.1609 10.8379 18.734 10.6764 19.2899ZM16.9026 12.0418C16.5012 11.5376 16.0954 11.0765 15.6896 10.6628C15.2882 11.0765 14.8825 11.5376 14.4898 12.0418C14.8868 12.0202 15.2926 12.0116 15.7027 12.0116C16.1085 12.0116 16.5099 12.0245 16.9026 12.0418ZM11.8326 14.2223C12.0333 13.8732 12.2471 13.5328 12.4609 13.201C11.837 13.2915 11.2349 13.4078 10.6633 13.5414C10.8291 14.1016 11.0298 14.679 11.2654 15.2565C11.4443 14.9117 11.6319 14.567 11.8326 14.2223ZM5.96861 16.4156C5.96861 17.0922 6.96777 17.9454 8.51231 18.5961C8.8919 18.7556 9.30204 18.9021 9.73398 19.0356C9.97832 18.1954 10.3012 17.3206 10.7026 16.4243C10.2968 15.5236 9.96959 14.6446 9.72089 13.7999C9.29767 13.9335 8.88754 14.0757 8.51231 14.2352C6.96777 14.8816 5.96861 15.7391 5.96861 16.4156ZM10.2096 21.4919C10.0089 23.138 10.2663 24.4179 10.8597 24.754C10.9906 24.8272 11.1564 24.866 11.3527 24.8703C12.2602 24.8703 13.5953 24.155 15.0177 22.8493C14.4025 22.2159 13.7917 21.4919 13.2027 20.6947C12.221 20.5913 11.2873 20.4318 10.4321 20.225C10.3361 20.6602 10.2576 21.0868 10.2096 21.4919ZM20.572 24.7367C21.161 24.3963 21.4141 23.1165 21.209 21.4704C21.161 21.0696 21.0825 20.6516 20.9821 20.2164C20.1269 20.4275 19.1932 20.587 18.2072 20.6904C17.6269 21.4876 17.016 22.2072 16.4052 22.8407C17.8276 24.1378 19.167 24.8488 20.0702 24.8488C20.2709 24.8488 20.4411 24.8143 20.572 24.7367ZM21.6802 19.0313C22.1034 18.8978 22.5136 18.7556 22.8888 18.5961C24.4333 17.9497 25.4325 17.0922 25.4368 16.4156C25.4368 15.7391 24.4377 14.8859 22.8931 14.2352C22.5092 14.0757 22.0991 13.9292 21.6671 13.7956C21.4228 14.6359 21.0999 15.5107 20.6985 16.407C21.1043 17.3077 21.4315 18.1867 21.6802 19.0313ZM17.6923 16.4157C17.6923 17.5033 16.7996 18.385 15.6984 18.385C14.5971 18.385 13.7044 17.5033 13.7044 16.4157C13.7044 15.3281 14.5971 14.4464 15.6984 14.4464C16.7996 14.4464 17.6923 15.3281 17.6923 16.4157Z" fill="#F18F01"/>
</svg>
