<svg width="104" height="104" viewBox="0 0 104 104" fill="none" xmlns="http://www.w3.org/2000/svg">
<path fill-rule="evenodd" clip-rule="evenodd" d="M92.4812 84.9835C91.0228 83.7826 89.5327 82.6101 88.1685 81.3069C86.6491 79.8566 85.6944 78.1024 85.9024 75.881C86.0218 74.603 85.7269 73.5036 84.1856 73.0763C84.548 72.1386 84.8876 71.5098 85.0249 70.8395C85.1777 70.092 85.1695 69.3063 85.1907 68.5368C85.4052 60.4443 82.4818 53.3504 78.152 46.7334C76.1581 43.6881 74.0756 40.6973 71.9501 37.7423C68.6254 33.1208 67.4335 27.9289 67.3733 22.3202C67.3392 19.7311 67.045 17.152 66.495 14.6218C65.4282 9.71427 62.799 5.87683 58.0304 3.81877C54.3766 2.2409 50.5944 1.92808 46.7358 2.93802C41.1288 4.40458 37.7382 8.5719 37.8016 14.3845C37.8617 19.9786 38.1404 25.58 38.5507 31.161C38.7847 34.3241 38.2972 37.0533 36.1985 39.5623C34.1803 41.9746 32.3749 44.577 30.6264 47.1973C29.6278 48.6956 28.7438 50.3279 28.1263 52.0163C26.4445 56.6175 24.8983 61.2568 22.2146 65.4225C21.2201 66.9663 21.1071 68.6936 21.8132 70.4592C21.996 70.9166 22.1081 71.6203 21.8855 71.9883C19.9729 75.1628 17.8141 77.9561 13.7069 78.5655C10.4764 79.0457 10.3171 79.6331 10.4155 82.9636C10.4967 85.6749 10.465 88.4114 10.188 91.1056C9.89302 93.9941 10.1945 94.779 12.9846 95.4712C19.4228 97.0702 25.9139 98.4344 32.0718 101.04C34.6938 102.149 37.3246 101.764 39.4363 99.6077C41.6406 97.3562 44.4259 96.4755 47.4346 96.4722C52.5412 96.4681 57.6493 96.7143 62.7583 96.772C64.1412 96.7883 64.935 97.3026 65.4916 98.5587C66.1741 100.097 67.3278 101.227 69.1032 101.424C72.51 101.799 75.6137 101.294 78.195 98.6944C81.3784 95.4866 85.0493 92.9533 89.2572 91.1975C90.4613 90.6945 91.5956 89.904 92.5909 89.046C94.4036 87.4843 94.3077 86.4898 92.4812 84.9835ZM50.7211 19.5975C51.337 17.4842 52.7825 16.1127 54.9811 15.6967C56.8303 15.3473 58.396 16.2557 59.5628 18.3341C60.8189 20.575 61.2317 22.9166 60.1592 25.3687C59.2792 27.3788 58.8665 27.5681 56.8092 26.8865C56.4241 26.7589 56.0479 26.6078 55.3654 26.3567C55.9407 25.8741 56.303 25.5158 56.7174 25.2338C57.6388 24.6066 57.8972 23.7242 57.811 22.6761C57.6981 21.2997 56.6158 20.081 55.506 20.0964C54.5107 20.1102 53.6681 21.0446 53.556 22.4648C53.4861 23.3496 53.6331 24.2515 53.6965 25.3809C50.8966 24.5497 49.8688 22.5168 50.7211 19.5975ZM40.3618 17.7686C41.3969 16.2021 42.9593 15.8885 44.5063 16.9366C46.1549 18.0546 47.3883 21.2071 46.7513 23.0921C46.5197 23.7778 45.8356 24.3108 45.357 24.9129L44.8663 24.609C44.6794 23.591 44.642 22.5087 44.2512 21.576C44.0042 20.9845 43.2299 20.614 42.692 20.1443C42.1866 20.7448 41.3165 21.3168 41.2645 21.9546C41.193 22.8353 41.652 23.8071 42.0518 24.661C42.3045 25.1981 42.8651 25.5913 43.4436 26.2178L41.882 27.4446C39.4298 25.2509 38.701 20.2784 40.3618 17.7686ZM70.9638 69.936C70.7988 72.0517 70.5575 72.1403 68.4304 72.4531C66.92 72.6741 66.5137 73.0673 66.4373 74.8613C66.3541 76.9602 66.3508 79.0615 66.4276 81.1606C66.4772 82.5988 65.9913 83.7265 65.0016 84.73C59.5059 90.3005 52.9401 92.9403 45.0857 91.9823C41.6975 91.5688 39.4827 89.5066 37.6943 86.5881C38.4906 86.2932 39.0797 86.095 39.6541 85.8618C42.1907 84.8299 42.6652 82.6483 40.6397 80.7617C39.1089 79.3341 37.401 78.0943 35.759 76.787C34.1713 75.5235 32.5626 74.2861 30.9725 73.0259C29.6173 71.951 29.0997 70.5657 29.0672 68.8106C28.9908 64.6003 29.857 60.6613 31.6168 56.8287C33.1866 53.4089 34.4029 49.8274 35.8735 46.3596C36.6332 44.5705 37.4222 42.74 38.5369 41.1694C39.6086 39.663 40.2708 38.1883 40.1522 36.3431C40.0839 35.3064 40.1392 34.2615 40.1392 33.2207L40.7136 32.9347C41.6407 33.735 42.584 34.5183 43.4948 35.3389C46.7813 38.3013 49.907 38.437 53.504 35.8833C55.038 34.7937 56.6971 33.8764 58.3197 32.916C58.7235 32.6771 59.2069 32.5723 59.891 32.3164C61.6387 36.4325 63.3539 40.4682 65.0707 44.5039C65.9417 46.5546 66.6405 48.7021 67.7227 50.6358C69.8929 54.5155 71.0475 58.6089 71.0296 63.0443C71.0198 65.3437 71.1409 67.6512 70.9638 69.936Z" fill="#E1E1E6"/>
</svg>
