<svg width="104" height="104" viewBox="0 0 104 104" fill="none" xmlns="http://www.w3.org/2000/svg">
<path d="M91.6264 24.6464L55.7976 3.84233C53.5381 2.55533 50.596 2.55533 48.3186 3.84233L12.1071 24.6464C9.77519 25.9878 8.125 28.509 8.125 31.2057V72.7586C8.125 75.4553 9.81825 77.9773 12.1501 79.326L21.7173 84.76C26.2901 87.0123 27.9061 87.0123 29.9869 87.0123C36.7575 87.0123 40.625 82.9181 40.625 75.777V34.7539C40.625 34.1746 40.3236 33.3125 39.7548 33.3125H35.1861C34.6076 33.3125 33.3125 34.1746 33.3125 34.7531V75.7762C33.3125 78.9417 30.4492 82.0918 25.0981 79.4162L15.2124 73.7181C14.8679 73.5313 14.625 73.1551 14.625 72.7586V31.2057C14.625 30.8141 15.0759 30.4208 15.4229 30.2201L51.5174 9.45183C51.8546 9.26089 52.3502 9.26089 52.6866 9.45183L88.3407 30.2153C88.6819 30.4208 88.5617 30.8019 88.5617 31.2057V72.7586C88.5617 73.1551 88.7104 73.541 88.3732 73.7319L52.5533 94.5125C52.2462 94.6969 51.8651 94.6969 51.5287 94.5125L42.3418 89.0289C42.0648 88.868 41.7357 88.8103 41.47 88.959C38.9139 90.4077 38.4426 90.6003 36.0449 91.4314C35.4551 91.637 34.5849 91.9937 36.3781 92.9988L48.4014 100.111C49.5493 100.774 50.8515 101.124 52.1771 101.124C53.5113 101.124 54.8178 100.778 55.9691 100.111L91.6256 79.326C93.9575 77.9675 95.0625 75.4553 95.0625 72.7586V31.2057C95.0625 28.509 93.9575 25.9943 91.6264 24.6464ZM63.3019 66.1741C53.7745 66.1741 51.6758 63.5456 50.9762 58.8079C50.895 58.2977 50.4619 57.6875 49.9427 57.6875H45.2863C44.7103 57.6875 44.2471 58.3863 44.2471 58.9599C44.2471 65.026 47.5451 72.3759 63.3027 72.3759C74.7094 72.3759 81.2492 67.9437 81.2492 60.0998C81.2492 52.3226 75.9948 50.2816 64.9326 48.8175C53.7509 47.3395 52.6151 46.5928 52.6151 43.9733C52.6151 41.8137 53.5771 38.9334 61.8564 38.9334C69.2542 38.9334 71.981 40.521 73.1031 45.5073C73.1989 45.9761 73.6271 46.3125 74.1106 46.3125H78.7857C79.0733 46.3125 79.3479 46.1963 79.5494 45.9908C79.7444 45.7698 79.8476 45.4927 79.8216 45.1953C79.0977 36.6088 73.3931 32.6073 61.8556 32.6073C51.5929 32.6073 45.4707 36.9411 45.4707 44.2057C45.4707 52.0853 51.5621 54.2628 61.4136 55.237C73.1989 56.3924 74.1154 58.1149 74.1154 60.4329C74.1154 64.4589 70.8833 66.1741 63.3019 66.1741Z" fill="#E1E1E6"/>
</svg>
