<svg width="104" height="104" viewBox="0 0 104 104" fill="none" xmlns="http://www.w3.org/2000/svg">
<path d="M51.9999 61.2625C57.1155 61.2625 61.2624 57.1155 61.2624 52C61.2624 46.8845 57.1155 42.7375 51.9999 42.7375C46.8844 42.7375 42.7374 46.8845 42.7374 52C42.7374 57.1155 46.8844 61.2625 51.9999 61.2625Z" fill="#E1E1E6"/>
<path d="M87.1812 36.725C85.3937 36.075 83.5249 35.425 81.575 34.8562C82.0625 32.9062 82.4687 30.9562 82.7937 29.0875C84.5 18.3625 82.6312 10.8062 77.4312 7.88124C75.8875 6.98749 74.1812 6.58124 72.2312 6.58124C66.5437 6.58124 59.3125 10.8062 52 17.875C44.6875 10.8062 37.4562 6.58124 31.7687 6.58124C29.8187 6.58124 28.1125 6.98749 26.5687 7.88124C21.3687 10.8875 19.5 18.4437 21.2062 29.0875C21.5312 30.9562 21.9375 32.9062 22.425 34.8562C20.475 35.425 18.6062 35.9937 16.8187 36.725C6.66245 40.625 1.13745 45.9875 1.13745 52C1.13745 58.0125 6.7437 63.375 16.8187 67.275C18.6062 67.925 20.475 68.575 22.425 69.1437C21.9375 71.0937 21.5312 73.0437 21.2062 74.9125C19.5 85.6375 21.3687 93.1937 26.5687 96.1187C28.1125 97.0125 29.8187 97.4187 31.7687 97.4187C37.5374 97.4187 44.7687 93.1937 52 86.125C59.3125 93.1937 66.5437 97.4187 72.2312 97.4187C74.1812 97.4187 75.8875 97.0125 77.4312 96.1187C82.6312 93.1125 84.5 85.5562 82.7937 74.9125C82.4687 73.0437 82.0625 71.0937 81.575 69.1437C83.5249 68.575 85.3937 68.0062 87.1812 67.275C97.3375 63.375 102.862 58.0125 102.862 52C102.862 45.9875 97.3375 40.625 87.1812 36.725ZM75.1562 11.9437C78.4874 13.8937 79.625 19.9062 78.2437 28.4375C78 30.1437 77.5937 31.9312 77.1062 33.8C72.8812 32.825 68.4125 32.175 63.7 31.7687C60.9375 27.8687 58.0937 24.375 55.25 21.2062C61.2625 15.275 67.3562 11.2125 72.3124 11.2125C73.3687 11.2125 74.3437 11.4562 75.1562 11.9437ZM66.0562 60.125C64.5937 62.725 62.8874 65.325 61.0999 67.925C58.0937 68.1687 55.0874 68.25 52 68.25C48.8312 68.25 45.8249 68.1687 42.8999 67.925C41.1124 65.325 39.4874 62.725 38.0249 60.125C36.4812 57.4437 35.0187 54.6812 33.7187 52C35.0187 49.3187 36.4812 46.5562 38.0249 43.875C39.4874 41.275 41.1937 38.675 42.9812 36.075C45.9874 35.8312 48.9937 35.75 52.0812 35.75C55.25 35.75 58.2562 35.8312 61.1812 36.075C62.9687 38.675 64.5937 41.275 66.0562 43.875C67.6 46.5562 69.0624 49.3187 70.3624 52C68.9812 54.6812 67.6 57.3625 66.0562 60.125ZM72.7999 57.4437C74.0187 60.2875 74.9937 63.05 75.8875 65.8125C73.125 66.4625 70.2 66.95 67.1124 67.3562C68.0874 65.8125 69.1437 64.1875 70.0374 62.4812C71.0125 60.775 71.9062 59.0687 72.7999 57.4437ZM52 79.4625C50.0499 77.35 48.1812 75.075 46.3937 72.7187C48.2624 72.8 50.1312 72.8812 52 72.8812C53.8687 72.8812 55.7374 72.8 57.6062 72.7187C55.8187 75.075 53.95 77.35 52 79.4625ZM36.8875 67.275C33.7999 66.8687 30.8749 66.3812 28.1124 65.7312C29.0062 63.05 29.9812 60.2062 31.2 57.3625C32.0937 58.9875 32.9874 60.6937 33.9624 62.3187C34.9375 64.1062 35.9125 65.65 36.8875 67.275ZM31.2 46.5562C29.9812 43.7125 29.0062 40.95 28.1124 38.1875C30.8749 37.5375 33.7999 37.05 36.8875 36.6437C35.9125 38.1875 34.8562 39.8125 33.9624 41.5187C32.9874 43.225 32.0937 44.9312 31.2 46.5562ZM52 24.5375C53.95 26.65 55.8187 28.925 57.6062 31.2812C55.7374 31.2 53.8687 31.1187 52 31.1187C50.1312 31.1187 48.2624 31.2 46.3937 31.2812C48.1812 28.925 50.0499 26.65 52 24.5375ZM70.0374 41.6L67.1124 36.725C70.2 37.1312 73.125 37.6187 75.8875 38.2687C74.9937 40.95 74.0187 43.7937 72.7999 46.6375C71.9062 44.9312 71.0125 43.225 70.0374 41.6ZM25.7562 28.4375C24.375 19.9062 25.5124 13.8937 28.8437 11.9437C29.6562 11.4562 30.6312 11.2125 31.6875 11.2125C36.5625 11.2125 42.6562 15.1937 48.75 21.2062C45.9062 24.2937 43.0625 27.8687 40.2999 31.7687C35.5874 32.175 31.1187 32.9062 26.8937 33.8C26.4062 31.9312 26.0812 30.1437 25.7562 28.4375ZM5.68745 52C5.68745 48.1812 10.3187 44.1187 18.4437 41.1125C20.0687 40.4625 21.8562 39.8937 23.6437 39.4062C24.9437 43.4687 26.5687 47.775 28.5187 52.0812C26.5687 56.3875 24.8625 60.6125 23.6437 64.675C12.4312 61.425 5.68745 56.55 5.68745 52ZM28.8437 92.0562C25.5124 90.1062 24.375 84.0937 25.7562 75.5625C26 73.8562 26.4062 72.0687 26.8937 70.2C31.1187 71.175 35.5874 71.825 40.2999 72.2312C43.0625 76.1312 45.9062 79.625 48.75 82.7937C42.7374 88.725 36.6437 92.7875 31.6875 92.7875C30.6312 92.7875 29.6562 92.5437 28.8437 92.0562ZM78.2437 75.5625C79.625 84.0937 78.4874 90.1062 75.1562 92.0562C74.3437 92.5437 73.3687 92.7875 72.3124 92.7875C67.4374 92.7875 61.3437 88.8062 55.25 82.7937C58.0937 79.7062 60.9375 76.1312 63.7 72.2312C68.4125 71.825 72.8812 71.0937 77.1062 70.2C77.5937 72.0687 77.9187 73.8562 78.2437 75.5625ZM85.5562 62.8875C83.9312 63.5375 82.1437 64.1062 80.3562 64.5937C79.0562 60.5312 77.4312 56.225 75.4812 51.9187C77.4312 47.6125 79.1375 43.3875 80.3562 39.325C91.5687 42.575 98.3124 47.45 98.3124 52C98.3124 55.8187 93.6 59.8812 85.5562 62.8875Z" fill="#E1E1E6"/>
</svg>
