<svg width="103" height="102" viewBox="0 0 103 102" fill="none" xmlns="http://www.w3.org/2000/svg">
<path d="M0.625 50.9269V101.708H102.188V0.14563H0.625V50.9269ZM82.4681 46.8644C84.9007 47.4289 87.1115 48.7011 88.8219 50.5206C89.7635 51.5009 90.582 52.5923 91.2594 53.7706C91.2594 53.9006 86.8719 56.8663 84.1988 58.5238C84.1012 58.5888 83.7113 58.1663 83.2806 57.5244C82.7926 56.6824 82.0993 55.9777 81.2653 55.4762C80.4313 54.9746 79.4838 54.6925 78.5113 54.6563C75.4319 54.445 73.4494 56.0619 73.4656 58.7188C73.4402 59.3802 73.5916 60.0366 73.9044 60.62C74.5788 62.0256 75.8381 62.8625 79.7869 64.5688C87.0587 67.6969 90.1706 69.7606 92.1044 72.6938C94.2656 75.9438 94.745 81.1925 93.2825 85.0763C91.6575 89.3013 87.6762 92.1694 82.0456 93.12C79.4739 93.4146 76.8756 93.3873 74.3106 93.0388C70.3961 92.4037 66.7851 90.5399 64 87.7169C63.0656 86.685 61.2456 83.9956 61.3594 83.8006C61.656 83.5805 61.9683 83.3822 62.2938 83.2075L66.0312 81.0625L68.9481 79.3725L69.5575 80.2744C70.5859 81.7455 71.8947 82.9991 73.4088 83.9631C76.6588 85.6694 81.095 85.4338 83.2887 83.4594C84.0253 82.7359 84.4848 81.777 84.5872 80.7497C84.6897 79.7223 84.4286 78.6916 83.8494 77.8369C83.0369 76.7075 81.4119 75.7569 76.87 73.7744C71.6294 71.5156 69.3706 70.1181 67.3069 67.8919C66.0185 66.4228 65.0673 64.6895 64.52 62.8138C64.1118 60.6707 64.0514 58.476 64.3412 56.3138C65.4219 51.2519 69.2162 47.7175 74.7575 46.6694C77.3237 46.3519 79.9231 46.4231 82.4681 46.8806V46.8644ZM58.6294 51.1219V55.2819H45.4425V92.8438H36.0906V55.2738H22.8713V51.2113C22.8358 49.8127 22.8737 48.4133 22.985 47.0188C23.0338 46.9538 31.11 46.9213 40.86 46.9375H58.5806L58.6294 51.1219Z" fill="#E1E1E6"/>
</svg>
